<svg width="26" height="26" viewBox="0 0 26 26" fill="none" xmlns="http://www.w3.org/2000/svg">
<path d="M4.00049 5.12536C4.00049 4.50311 4.50321 4.00039 5.12546 4.00039H7.37542C7.99767 4.00039 8.50039 4.50311 8.50039 5.12536V7.37532H4.00049V5.12536ZM4.00049 8.50029H8.50039V17.5001H4.00049V8.50029ZM4.00049 18.6251H8.50039V20.875C8.50039 21.4973 7.99767 22 7.37542 22H5.12546C4.50321 22 4.00049 21.4973 4.00049 20.875V18.6251ZM9.62537 5.12536C9.62537 4.50311 10.1281 4.00039 10.7503 4.00039H13.0003C13.6225 4.00039 14.1253 4.50311 14.1253 5.12536V7.37532H9.62537V5.12536ZM9.62537 8.50029H14.1253V17.5001H9.62537V8.50029ZM9.62537 18.6251H14.1253V20.875C14.1253 21.4973 13.6225 22 13.0003 22H10.7503C10.1281 22 9.62537 21.4973 9.62537 20.875V18.6251ZM16.783 17.9255L15.2502 12.1776V9.02059L18.7799 8.07491L21.1001 16.7724L16.783 17.9255ZM18.4916 6.98861L15.2502 7.85343V4.3871L16.5475 4.03906C17.1416 3.87734 17.7568 4.23242 17.915 4.83357L18.4916 6.98861ZM17.0713 19.0118L21.3884 17.8552L21.9614 20.0032C22.1196 20.6008 21.7681 21.216 21.1704 21.3777L19.0119 21.9578C18.4178 22.1195 17.8025 21.7645 17.6443 21.1633L17.0713 19.0118Z" fill="#2D2D2D"/>
</svg>
