<svg width="27" height="26" viewBox="0 0 27 26" fill="none" xmlns="http://www.w3.org/2000/svg">
<path d="M4.8363 5.12536C4.8363 4.50311 5.33903 4.00039 5.96128 4.00039H8.21123C8.83348 4.00039 9.33621 4.50311 9.33621 5.12536V7.37532H4.8363V5.12536ZM4.8363 8.50029H9.33621V17.5001H4.8363V8.50029ZM4.8363 18.6251H9.33621V20.875C9.33621 21.4973 8.83348 22 8.21123 22H5.96128C5.33903 22 4.8363 21.4973 4.8363 20.875V18.6251ZM10.4612 5.12536C10.4612 4.50311 10.9639 4.00039 11.5862 4.00039H13.8361C14.4584 4.00039 14.9611 4.50311 14.9611 5.12536V7.37532H10.4612V5.12536ZM10.4612 8.50029H14.9611V17.5001H10.4612V8.50029ZM10.4612 18.6251H14.9611V20.875C14.9611 21.4973 14.4584 22 13.8361 22H11.5862C10.9639 22 10.4612 21.4973 10.4612 20.875V18.6251ZM17.6188 17.9255L16.0861 12.1776V9.02059L19.6157 8.07491L21.9359 16.7724L17.6188 17.9255ZM19.3274 6.98861L16.0861 7.85343V4.3871L17.3833 4.03906C17.9774 3.87734 18.5926 4.23242 18.7508 4.83357L19.3274 6.98861ZM17.9071 19.0118L22.2242 17.8552L22.7972 20.0032C22.9554 20.6008 22.6039 21.216 22.0062 21.3777L19.8477 21.9578C19.2536 22.1195 18.6383 21.7645 18.4801 21.1633L17.9071 19.0118Z" fill="white"/>
</svg>
