<svg width="26" height="26" viewBox="0 0 26 26" fill="none" xmlns="http://www.w3.org/2000/svg">
<path d="M4.00061 5.12536C4.00061 4.50311 4.50333 4.00039 5.12559 4.00039H7.37554C7.99779 4.00039 8.50051 4.50311 8.50051 5.12536V7.37532H4.00061V5.12536ZM4.00061 8.50029H8.50051V17.5001H4.00061V8.50029ZM4.00061 18.6251H8.50051V20.875C8.50051 21.4973 7.99779 22 7.37554 22H5.12559C4.50333 22 4.00061 21.4973 4.00061 20.875V18.6251ZM9.62549 5.12536C9.62549 4.50311 10.1282 4.00039 10.7505 4.00039H13.0004C13.6227 4.00039 14.1254 4.50311 14.1254 5.12536V7.37532H9.62549V5.12536ZM9.62549 8.50029H14.1254V17.5001H9.62549V8.50029ZM9.62549 18.6251H14.1254V20.875C14.1254 21.4973 13.6227 22 13.0004 22H10.7505C10.1282 22 9.62549 21.4973 9.62549 20.875V18.6251ZM16.7831 17.9255L15.2504 12.1776V9.02059L18.78 8.07491L21.1002 16.7724L16.7831 17.9255ZM18.4917 6.98861L15.2504 7.85343V4.3871L16.5476 4.03906C17.1417 3.87734 17.757 4.23242 17.9152 4.83357L18.4917 6.98861ZM17.0714 19.0118L21.3885 17.8552L21.9615 20.0032C22.1197 20.6008 21.7682 21.216 21.1706 21.3777L19.012 21.9578C18.4179 22.1195 17.8027 21.7645 17.6445 21.1633L17.0714 19.0118Z" fill="#C6D3DF"/>
</svg>
