<svg width="26" height="26" viewBox="0 0 26 26" fill="none" xmlns="http://www.w3.org/2000/svg">
<path d="M22 13C22 10.6131 21.0518 8.32387 19.364 6.63604C17.6761 4.94821 15.3869 4 13 4C10.6131 4 8.32387 4.94821 6.63604 6.63604C4.94821 8.32387 4 10.6131 4 13C4 15.3869 4.94821 17.6761 6.63604 19.364C8.32387 21.0518 10.6131 22 13 22C15.3869 22 17.6761 21.0518 19.364 19.364C21.0518 17.6761 22 15.3869 22 13ZM13.5273 8.74609C13.8578 8.41563 14.3922 8.41563 14.7191 8.74609C15.0461 9.07656 15.0496 9.61094 14.7191 9.93789L11.6605 12.9965L14.7191 16.0551C15.0496 16.3855 15.0496 16.9199 14.7191 17.2469C14.3887 17.5738 13.8543 17.5773 13.5273 17.2469L9.87109 13.5977C9.54063 13.2672 9.54063 12.7328 9.87109 12.4059L13.5273 8.74609Z" fill="#2D2D2D"/>
</svg>
