<svg width="26" height="26" viewBox="0 0 26 26" fill="none" xmlns="http://www.w3.org/2000/svg">
<path d="M11.7143 5.92857C11.7143 4.86384 10.8504 4 9.78571 4H5.92857C4.86384 4 4 4.86384 4 5.92857V9.78571C4 10.8504 4.86384 11.7143 5.92857 11.7143H9.78571C10.8504 11.7143 11.7143 10.8504 11.7143 9.78571V5.92857ZM11.7143 16.2143C11.7143 15.1496 10.8504 14.2857 9.78571 14.2857H5.92857C4.86384 14.2857 4 15.1496 4 16.2143V20.0714C4 21.1362 4.86384 22 5.92857 22H9.78571C10.8504 22 11.7143 21.1362 11.7143 20.0714V16.2143ZM14.2857 5.92857V9.78571C14.2857 10.8504 15.1496 11.7143 16.2143 11.7143H20.0714C21.1362 11.7143 22 10.8504 22 9.78571V5.92857C22 4.86384 21.1362 4 20.0714 4H16.2143C15.1496 4 14.2857 4.86384 14.2857 5.92857ZM22 16.2143C22 15.1496 21.1362 14.2857 20.0714 14.2857H16.2143C15.1496 14.2857 14.2857 15.1496 14.2857 16.2143V20.0714C14.2857 21.1362 15.1496 22 16.2143 22H20.0714C21.1362 22 22 21.1362 22 20.0714V16.2143Z" fill="#2D2D2D"/>
</svg>
