<svg width="26" height="26" viewBox="0 0 26 26" fill="none" xmlns="http://www.w3.org/2000/svg">
<path d="M4 13C4 15.3869 4.94821 17.6761 6.63604 19.364C8.32387 21.0518 10.6131 22 13 22C15.3869 22 17.6761 21.0518 19.364 19.364C21.0518 17.6761 22 15.3869 22 13C22 10.6131 21.0518 8.32387 19.364 6.63604C17.6761 4.94821 15.3869 4 13 4C10.6131 4 8.32387 4.94821 6.63604 6.63604C4.94821 8.32387 4 10.6131 4 13ZM12.4727 17.2539C12.1422 17.5844 11.6078 17.5844 11.2809 17.2539C10.9539 16.9234 10.9504 16.3891 11.2809 16.0621L14.3395 13.0035L11.2809 9.94492C10.9504 9.61445 10.9504 9.08008 11.2809 8.75313C11.6113 8.42617 12.1457 8.42266 12.4727 8.75313L16.1289 12.4023C16.4594 12.7328 16.4594 13.2672 16.1289 13.5941L12.4727 17.2539Z" fill="white"/>
</svg>
