<svg width="11" height="12" viewBox="0 0 11 12" fill="none" xmlns="http://www.w3.org/2000/svg">
<g clip-path="url(#clip0_202_590)">
<path d="M5.25 1.5C6.28594 1.5 7.125 2.33906 7.125 3.375V4.5H3.375V3.375C3.375 2.33906 4.21406 1.5 5.25 1.5ZM1.875 3.375V4.5H1.5C0.672656 4.5 0 5.17266 0 6V10.5C0 11.3273 0.672656 12 1.5 12H9C9.82734 12 10.5 11.3273 10.5 10.5V6C10.5 5.17266 9.82734 4.5 9 4.5H8.625V3.375C8.625 1.51172 7.11328 0 5.25 0C3.38672 0 1.875 1.51172 1.875 3.375ZM6 7.5V9C6 9.41484 5.66484 9.75 5.25 9.75C4.83516 9.75 4.5 9.41484 4.5 9V7.5C4.5 7.08516 4.83516 6.75 5.25 6.75C5.66484 6.75 6 7.08516 6 7.5Z" fill="white"/>
</g>
<defs>
<clipPath id="clip0_202_590">
<rect width="10.5" height="12" fill="white"/>
</clipPath>
</defs>
</svg>
