<svg width="11" height="12" viewBox="0 0 11 12" fill="none" xmlns="http://www.w3.org/2000/svg">
<g clip-path="url(#clip0_220_830)">
<path d="M0 2.25C0 1.00781 1.00781 0 2.25 0H9H9.75C10.1648 0 10.5 0.335156 10.5 0.75V8.25C10.5 8.66484 10.1648 9 9.75 9V10.5C10.1648 10.5 10.5 10.8352 10.5 11.25C10.5 11.6648 10.1648 12 9.75 12H9H2.25C1.00781 12 0 10.9922 0 9.75V2.25ZM1.5 9.75C1.5 10.1648 1.83516 10.5 2.25 10.5H8.25V9H2.25C1.83516 9 1.5 9.33516 1.5 9.75ZM5.35547 5.65547L5.53125 5.70234C6.41953 5.93203 6.61172 6.05391 6.55313 6.35156C6.49453 6.66094 5.99766 6.81094 5.34141 6.71953C5.10234 6.68672 4.81641 6.59297 4.56563 6.51094L4.42734 6.46641C4.23047 6.40312 4.01953 6.51094 3.95625 6.71016C3.89297 6.90703 4.00312 7.11797 4.2 7.18125L4.33594 7.22578C4.61719 7.31719 4.93828 7.42031 5.24063 7.4625C5.40469 7.48594 5.56406 7.49766 5.71406 7.49766C6.56953 7.49766 7.17188 7.12734 7.29141 6.49453C7.3875 5.99766 7.19766 5.67656 6.9 5.45391C7.10391 5.2875 7.23984 5.06953 7.29141 4.80703C7.49297 3.75 6.42656 3.47344 5.72109 3.29062L5.55 3.24609C4.69453 3.01875 4.65938 2.85937 4.70156 2.64141C4.76016 2.33203 5.25937 2.17969 5.91094 2.27344C6.06562 2.29453 6.25312 2.34141 6.50156 2.41875C6.69609 2.47969 6.90937 2.36953 6.97031 2.17266C7.03125 1.97578 6.92109 1.76484 6.72422 1.70391C6.43594 1.61484 6.21094 1.55859 6.01641 1.53281C4.9125 1.37578 4.10625 1.75781 3.96562 2.50078C3.86953 3 4.06875 3.32344 4.35703 3.54375C4.15312 3.71016 4.01719 3.92812 3.96562 4.18828C3.76641 5.23359 4.84219 5.51953 5.36016 5.65781L5.35547 5.65547ZM5.2875 3.94922C5.30859 3.95391 5.52891 4.0125 5.52891 4.0125C6.41719 4.24219 6.60938 4.36406 6.55078 4.66172C6.49922 4.92656 6.16406 5.01094 5.96016 5.03906C5.87578 5.01562 5.54531 4.92891 5.54531 4.92891C4.68984 4.70156 4.65469 4.54219 4.69687 4.32422C4.74844 4.05937 5.08359 3.975 5.2875 3.94687V3.94922Z" fill="#2D2D2D"/>
</g>
<defs>
<clipPath id="clip0_220_830">
<rect width="10.5" height="12" fill="white"/>
</clipPath>
</defs>
</svg>
