<svg width="26" height="26" viewBox="0 0 26 26" fill="none" xmlns="http://www.w3.org/2000/svg">
<path d="M22 11.875C22 10.634 20.991 9.625 19.75 9.625H6.25C5.00898 9.625 4 10.634 4 11.875V19.75C4 20.991 5.00898 22 6.25 22H19.75C20.991 22 22 20.991 22 19.75V11.875ZM19.4688 6.8125H6.53125C6.06367 6.8125 5.6875 7.18867 5.6875 7.65625C5.6875 8.12383 6.06367 8.5 6.53125 8.5H19.4688C19.9363 8.5 20.3125 8.12383 20.3125 7.65625C20.3125 7.18867 19.9363 6.8125 19.4688 6.8125ZM17.7812 4H8.21875C7.75117 4 7.375 4.37617 7.375 4.84375C7.375 5.31133 7.75117 5.6875 8.21875 5.6875H17.7812C18.2488 5.6875 18.625 5.31133 18.625 4.84375C18.625 4.37617 18.2488 4 17.7812 4Z" fill="white"/>
</svg>
