<svg width="26" height="26" viewBox="0 0 26 26" fill="none" xmlns="http://www.w3.org/2000/svg">
<path d="M12.55 6.66279V17.2378L6.7 16.1128V6.73873C6.7 6.18186 7.20062 5.75717 7.74906 5.84998L12.55 6.66279ZM6.52281 17.1562L13 18.4528L19.4772 17.1562C19.8991 17.0719 20.2 16.7034 20.2 16.2731V6.57279L20.9228 6.42936C21.4797 6.31686 22 6.74154 22 7.30967V17.6259C22 18.0562 21.6962 18.4247 21.2772 18.509L13 20.1628L4.72281 18.5062C4.30375 18.4247 4 18.0534 4 17.6259V7.30967C4 6.74154 4.52031 6.31686 5.07719 6.42936L5.8 6.57279V16.2759C5.8 16.7062 6.10375 17.0747 6.52281 17.159V17.1562ZM13.45 17.2378V6.66279L18.2509 5.84998C18.7994 5.75717 19.3 6.18186 19.3 6.73873V16.1128L13.45 17.2378Z" fill="#2D2D2D"/>
</svg>
