<svg width="26" height="26" viewBox="0 0 26 26" fill="none" xmlns="http://www.w3.org/2000/svg">
<path d="M19.75 20.875H6.25C5.00898 20.875 4 19.866 4 18.625V7.375C4 6.13398 5.00898 5.125 6.25 5.125H10.75C11.4566 5.125 12.1246 5.45898 12.55 6.025L13.225 6.925C13.4359 7.20977 13.7699 7.375 14.125 7.375H19.75C20.991 7.375 22 8.38398 22 9.625V18.625C22 19.866 20.991 20.875 19.75 20.875ZM10.1875 11.875C10.1875 11.5766 10.069 11.2905 9.858 11.0795C9.64702 10.8685 9.36087 10.75 9.0625 10.75C8.76413 10.75 8.47798 10.8685 8.267 11.0795C8.05603 11.2905 7.9375 11.5766 7.9375 11.875C7.9375 12.1734 8.05603 12.4595 8.267 12.6705C8.47798 12.8815 8.76413 13 9.0625 13C9.36087 13 9.64702 12.8815 9.858 12.6705C10.069 12.4595 10.1875 12.1734 10.1875 11.875ZM14.4062 11.875C14.125 11.875 13.8613 12.0156 13.7031 12.2512L11.7344 15.2043L11.1262 14.4414C10.9645 14.241 10.7219 14.125 10.4688 14.125C10.2156 14.125 9.96953 14.241 9.81133 14.4414L7.56133 17.2539C7.35742 17.507 7.31875 17.8551 7.45938 18.1469C7.6 18.4387 7.89531 18.625 8.21875 18.625H11.0312H12.7188H17.7812C18.0941 18.625 18.3789 18.4527 18.5266 18.1785C18.6742 17.9043 18.6566 17.5703 18.4844 17.3137L15.1094 12.2512C14.9512 12.0156 14.6875 11.875 14.4062 11.875Z" fill="white"/>
</svg>
