<svg width="26" height="26" viewBox="0 0 26 26" fill="none" xmlns="http://www.w3.org/2000/svg">
<path d="M7.9375 4C7.00586 4 6.25 4.75586 6.25 5.6875V20.3125C6.25 21.2441 7.00586 22 7.9375 22H11.3125V19.1875C11.3125 18.2559 12.0684 17.5 13 17.5C13.9316 17.5 14.6875 18.2559 14.6875 19.1875V22H18.0625C18.9941 22 19.75 21.2441 19.75 20.3125V5.6875C19.75 4.75586 18.9941 4 18.0625 4H7.9375ZM8.5 12.4375C8.5 12.1281 8.75312 11.875 9.0625 11.875H10.1875C10.4969 11.875 10.75 12.1281 10.75 12.4375V13.5625C10.75 13.8719 10.4969 14.125 10.1875 14.125H9.0625C8.75312 14.125 8.5 13.8719 8.5 13.5625V12.4375ZM12.4375 11.875H13.5625C13.8719 11.875 14.125 12.1281 14.125 12.4375V13.5625C14.125 13.8719 13.8719 14.125 13.5625 14.125H12.4375C12.1281 14.125 11.875 13.8719 11.875 13.5625V12.4375C11.875 12.1281 12.1281 11.875 12.4375 11.875ZM15.25 12.4375C15.25 12.1281 15.5031 11.875 15.8125 11.875H16.9375C17.2469 11.875 17.5 12.1281 17.5 12.4375V13.5625C17.5 13.8719 17.2469 14.125 16.9375 14.125H15.8125C15.5031 14.125 15.25 13.8719 15.25 13.5625V12.4375ZM9.0625 7.375H10.1875C10.4969 7.375 10.75 7.62812 10.75 7.9375V9.0625C10.75 9.37187 10.4969 9.625 10.1875 9.625H9.0625C8.75312 9.625 8.5 9.37187 8.5 9.0625V7.9375C8.5 7.62812 8.75312 7.375 9.0625 7.375ZM11.875 7.9375C11.875 7.62812 12.1281 7.375 12.4375 7.375H13.5625C13.8719 7.375 14.125 7.62812 14.125 7.9375V9.0625C14.125 9.37187 13.8719 9.625 13.5625 9.625H12.4375C12.1281 9.625 11.875 9.37187 11.875 9.0625V7.9375ZM15.8125 7.375H16.9375C17.2469 7.375 17.5 7.62812 17.5 7.9375V9.0625C17.5 9.37187 17.2469 9.625 16.9375 9.625H15.8125C15.5031 9.625 15.25 9.37187 15.25 9.0625V7.9375C15.25 7.62812 15.5031 7.375 15.8125 7.375Z" fill="white"/>
</svg>
